<svg id="visual" viewBox="0 0 900 600" width="900" height="600" xmlns="http://www.w3.org/2000/svg" xmlns:xlink="http://www.w3.org/1999/xlink" version="1.1"><path d="M0 103L13.7 102C27.3 101 54.7 99 82 111C109.3 123 136.7 149 163.8 168C191 187 218 199 245.2 202C272.3 205 299.7 199 327 209C354.3 219 381.7 245 409 241C436.3 237 463.7 203 491 170C518.3 137 545.7 105 573 104C600.3 103 627.7 133 654.8 152C682 171 709 179 736.2 175C763.3 171 790.7 155 818 144C845.3 133 872.7 127 886.3 124L900 121L900 0L886.3 0C872.7 0 845.3 0 818 0C790.7 0 763.3 0 736.2 0C709 0 682 0 654.8 0C627.7 0 600.3 0 573 0C545.7 0 518.3 0 491 0C463.7 0 436.3 0 409 0C381.7 0 354.3 0 327 0C299.7 0 272.3 0 245.2 0C218 0 191 0 163.8 0C136.7 0 109.3 0 82 0C54.7 0 27.3 0 13.7 0L0 0Z" fill="#86ca74"></path><path d="M0 145L13.7 149C27.3 153 54.7 161 82 181C109.3 201 136.7 233 163.8 260C191 287 218 309 245.2 310C272.3 311 299.7 291 327 300C354.3 309 381.7 347 409 337C436.3 327 463.7 269 491 234C518.3 199 545.7 187 573 195C600.3 203 627.7 231 654.8 240C682 249 709 239 736.2 237C763.3 235 790.7 241 818 240C845.3 239 872.7 231 886.3 227L900 223L900 119L886.3 122C872.7 125 845.3 131 818 142C790.7 153 763.3 169 736.2 173C709 177 682 169 654.8 150C627.7 131 600.3 101 573 102C545.7 103 518.3 135 491 168C463.7 201 436.3 235 409 239C381.7 243 354.3 217 327 207C299.7 197 272.3 203 245.2 200C218 197 191 185 163.8 166C136.7 147 109.3 121 82 109C54.7 97 27.3 99 13.7 100L0 101Z" fill="#6dbf58"></path><path d="M0 247L13.7 244C27.3 241 54.7 235 82 250C109.3 265 136.7 301 163.8 332C191 363 218 389 245.2 390C272.3 391 299.7 367 327 370C354.3 373 381.7 403 409 395C436.3 387 463.7 341 491 306C518.3 271 545.7 247 573 247C600.3 247 627.7 271 654.8 279C682 287 709 279 736.2 278C763.3 277 790.7 283 818 285C845.3 287 872.7 285 886.3 284L900 283L900 221L886.3 225C872.7 229 845.3 237 818 238C790.7 239 763.3 233 736.2 235C709 237 682 247 654.8 238C627.7 229 600.3 201 573 193C545.7 185 518.3 197 491 232C463.7 267 436.3 325 409 335C381.7 345 354.3 307 327 298C299.7 289 272.3 309 245.2 308C218 307 191 285 163.8 258C136.7 231 109.3 199 82 179C54.7 159 27.3 151 13.7 147L0 143Z" fill="#52b43b"></path><path d="M0 439L13.7 452C27.3 465 54.7 491 82 499C109.3 507 136.7 497 163.8 494C191 491 218 495 245.2 490C272.3 485 299.7 471 327 477C354.3 483 381.7 509 409 509C436.3 509 463.7 483 491 467C518.3 451 545.7 445 573 460C600.3 475 627.7 511 654.8 511C682 511 709 475 736.2 471C763.3 467 790.7 495 818 502C845.3 509 872.7 495 886.3 488L900 481L900 281L886.3 282C872.7 283 845.3 285 818 283C790.7 281 763.3 275 736.2 276C709 277 682 285 654.8 277C627.7 269 600.3 245 573 245C545.7 245 518.3 269 491 304C463.7 339 436.3 385 409 393C381.7 401 354.3 371 327 368C299.7 365 272.3 389 245.2 388C218 387 191 361 163.8 330C136.7 299 109.3 263 82 248C54.7 233 27.3 239 13.7 242L0 245Z" fill="#479c33"></path><path d="M0 601L13.7 601C27.3 601 54.7 601 82 601C109.3 601 136.7 601 163.8 601C191 601 218 601 245.2 601C272.3 601 299.7 601 327 601C354.3 601 381.7 601 409 601C436.3 601 463.7 601 491 601C518.3 601 545.7 601 573 601C600.3 601 627.7 601 654.8 601C682 601 709 601 736.2 601C763.3 601 790.7 601 818 601C845.3 601 872.7 601 886.3 601L900 601L900 479L886.3 486C872.7 493 845.3 507 818 500C790.7 493 763.3 465 736.2 469C709 473 682 509 654.8 509C627.7 509 600.3 473 573 458C545.7 443 518.3 449 491 465C463.7 481 436.3 507 409 507C381.7 507 354.3 481 327 475C299.7 469 272.3 483 245.2 488C218 493 191 489 163.8 492C136.7 495 109.3 505 82 497C54.7 489 27.3 463 13.7 450L0 437Z" fill="#3c842c"></path></svg>